<?xml version="1.0" encoding="UTF-8"?><svg id="Layer_1" xmlns="http://www.w3.org/2000/svg" xmlns:xlink="http://www.w3.org/1999/xlink" viewBox="0 0 160.97 39.43"><defs><style>.cls-1{fill:url(#linear-gradient-2);}.cls-2{fill:url(#linear-gradient);}.cls-3{fill-rule:evenodd;}</style><linearGradient id="linear-gradient" x1="0" y1="30.19" x2="31.24" y2="30.19" gradientTransform="translate(0 61.43) scale(1 -1)" gradientUnits="userSpaceOnUse"><stop offset="0" stop-color="#7612fa"/><stop offset="1" stop-color="#40ddff"/></linearGradient><linearGradient id="linear-gradient-2" x1=".68" y1="52.12" x2="30.61" y2="52.12" gradientTransform="translate(0 61.43) scale(1 -1)" gradientUnits="userSpaceOnUse"><stop offset="0" stop-color="#fa12e3"/><stop offset="1" stop-color="gold"/></linearGradient></defs><path class="cls-2" d="M0,29.09l5.76-4.46c3.06,4.04,6.32,5.9,9.94,5.9s6.76-1.84,9.69-5.84l5.85,4.35c-4.22,5.78-9.46,8.83-15.53,8.83s-11.35-3.03-15.7-8.77Z"/><path class="cls-1" d="M15.68,9.7l-10.26,8.93L.68,13.08,15.7,0l14.9,13.09-4.76,5.54-10.16-8.92Z"/><path class="cls-3" d="M72.83,8.96c0,1.93,1.39,3.34,3.31,3.34h0c1.85,0,3.28-1.41,3.28-3.34s-1.43-3.28-3.28-3.28-3.31,1.41-3.31,3.28ZM70.72,6.99v25h-5.71V6.99h5.71ZM53.34,32.35c-3.5,0-6.42-1.15-8.79-3.44-2.37-2.33-3.53-5.31-3.53-8.94s1.2-6.68,3.57-9.04c2.4-2.39,5.32-3.57,8.79-3.57,4.28,0,8.08,1.87,10.28,4.78l-3.86,4.1c-1.85-2-3.86-3.02-6.03-3.02-1.85,0-3.37.62-4.64,1.9-1.23,1.28-1.85,2.89-1.85,4.82s.61,3.44,1.85,4.72c1.27,1.24,2.79,1.87,4.61,1.87,2.37,0,4.44-1.05,6.16-3.11l4.02,3.9c-1.1,1.47-2.6,2.69-4.44,3.64-1.85.95-3.89,1.41-6.13,1.41ZM79.02,13.91v18.09h-5.74V13.91h5.74ZM83.14,29.73c1.78,1.77,4.05,2.66,6.88,2.66,3.8,0,7.01-1.87,8.56-4.88l-4.58-2.75c-.65,1.41-2.17,2.33-3.83,2.33-2.3,0-4.02-1.77-4.02-4.16-.02-1.09.39-2.13,1.14-2.91.78-.79,1.75-1.18,2.95-1.18,1.65,0,2.92.79,3.83,2.33l4.57-2.43c-1.52-3.44-4.8-5.27-8.53-5.27-2.85,0-5.16.88-6.94,2.65-1.78,1.77-2.66,4.03-2.66,6.81s.88,5.05,2.63,6.81ZM118.49,31.99h-6.81l-5.29-7.18-.84.79v6.39h-5.71V6.99h5.71v12.16l5.38-5.24h6.97l-7.69,7.27,8.27,10.81ZM118.87,7.78v14.81c0,7.14,4.93,9.83,9.89,9.83s9.89-2.69,9.89-9.83V7.78h-6.13v14.71c0,2.65-1.56,4.03-3.76,4.03s-3.8-1.31-3.8-4.03V7.78h-6.1ZM152.21,13.45c2.56,0,4.64.92,6.29,2.75,1.65,1.8,2.46,4.06,2.46,6.72s-.84,4.91-2.49,6.78c-1.66,1.83-3.73,2.75-6.23,2.75-1.98,0-3.7-.66-5.09-1.97v8.94h-5.74V13.91h5.65v1.67c1.39-1.41,3.11-2.13,5.16-2.13h0ZM151.11,18.82c2.34,0,4.02,1.8,4.02,4.16h0c.01,1.09-.39,2.15-1.14,2.95-.75.82-1.72,1.21-2.89,1.21s-2.14-.39-2.92-1.21c-.75-.82-1.13-1.8-1.13-2.95,0-2.36,1.72-4.16,4.05-4.16Z"/></svg>