<?xml version="1.0" encoding="UTF-8"?><svg id="Layer_1" xmlns="http://www.w3.org/2000/svg" viewBox="0 0 352.12 313"><defs><style>.cls-1{fill:#225086;}.cls-2{fill:#96bcc2;}.cls-3{fill:#074793;}.cls-4{fill:#cbf8ff;}.cls-5{fill:#0294e4;}.cls-6{fill:#6df;}</style></defs><path class="cls-1" d="M74.38,254.94c7.59,4.73,20.21,10,33.55,10,12.15,0,23.44-3.52,32.79-9.53,0,0,.02,0,.04-.02l35.31-22.07v79.68c-5.59,0-11.23-1.53-16.12-4.58,0,0-85.57-53.48-85.57-53.48Z"/><path class="cls-6" d="M153.62,9.92L6.91,175.42c-11.33,12.79-8.37,32.12,6.32,41.3,0,0,54.31,33.94,61.15,38.23,7.59,4.73,20.21,10,33.55,10,12.15,0,23.44-3.52,32.79-9.53,0,0,.02,0,.04-.02l35.31-22.07-85.37-53.37,85.39-96.33V0h0c-8.29,0-16.57,3.31-22.44,9.92h-.02Z"/><polygon class="cls-4" points="90.69 179.96 91.71 180.58 176.06 233.32 176.08 233.32 176.08 233.32 176.08 83.65 176.06 83.63 90.69 179.96"/><path class="cls-3" d="M338.9,216.71c14.69-9.17,17.65-28.5,6.32-41.3l-96.27-108.59c-7.77-3.62-16.47-5.69-25.69-5.69-18.1,0-34.27,7.81-45.03,20.07l-2.13,2.41h0l85.37,96.33h0l-85.39,53.37v79.68c5.61,0,11.21-1.53,16.1-4.58l146.72-91.71v.02Z"/><path class="cls-5" d="M176.08,0v83.63l2.13-2.41c10.76-12.27,26.94-20.07,45.03-20.07,9.23,0,17.92,2.09,25.69,5.69l-50.45-56.91C192.63,3.33,184.34.02,176.06.02l.02-.02Z"/><polygon class="cls-2" points="261.45 179.96 261.45 179.96 261.45 179.96 176.08 83.65 176.08 233.3 261.45 179.96"/></svg>